<svg width="60" height="60" viewBox="0 0 60 60" fill="none" xmlns="http://www.w3.org/2000/svg">
<path d="M15 43.8892L17.1524 35.886C15.4165 32.7683 14.865 29.1302 15.5991 25.6394C16.3332 22.1485 18.3036 19.039 21.1488 16.8815C23.9939 14.7239 27.523 13.6631 31.0884 13.8935C34.6538 14.124 38.0164 15.6304 40.5591 18.1363C43.1018 20.6421 44.6541 23.9793 44.9311 27.5356C45.2081 31.0918 44.1912 34.6285 42.0671 37.4966C39.9429 40.3647 36.854 42.372 33.3672 43.1499C29.8803 43.9279 26.2294 43.4244 23.0843 41.7319L15 43.8892ZM23.4741 38.737L23.9741 39.0331C26.2521 40.3811 28.9128 40.9389 31.5416 40.6197C34.1703 40.3004 36.6194 39.1219 38.5073 37.268C40.3951 35.414 41.6156 32.9886 41.9786 30.3699C42.3415 27.7511 41.8266 25.086 40.514 22.7899C39.2014 20.4938 37.1648 18.6957 34.7217 17.6757C32.2786 16.6558 29.5661 16.4714 27.007 17.1511C24.448 17.8309 22.186 19.3367 20.5736 21.4339C18.9613 23.5311 18.0891 26.1019 18.0931 28.7456C18.0909 30.9377 18.6982 33.0874 19.8472 34.9554L20.1608 35.4714L18.9574 39.9383L23.4741 38.737Z" fill="white"/>
<path fill-rule="evenodd" clip-rule="evenodd" d="M35.6086 30.8007C35.3155 30.5647 34.9723 30.3986 34.6052 30.315C34.2381 30.2314 33.8567 30.2326 33.4901 30.3185C32.9392 30.5469 32.5833 31.4098 32.2274 31.8413C32.1524 31.9447 32.0421 32.0172 31.9173 32.0453C31.7925 32.0733 31.6617 32.0549 31.5495 31.9936C29.5329 31.205 27.8426 29.759 26.7531 27.8904C26.6602 27.7738 26.6162 27.6257 26.6304 27.4774C26.6447 27.3291 26.716 27.192 26.8294 27.0952C27.2263 26.7028 27.5178 26.2169 27.6768 25.6823C27.7121 25.0927 27.5768 24.5053 27.287 23.9903C27.063 23.2683 26.6366 22.6254 26.0582 22.1375C25.76 22.0036 25.4292 21.9587 25.1059 22.0082C24.7826 22.0578 24.4806 22.1996 24.2363 22.4167C23.8121 22.7821 23.4755 23.2377 23.2511 23.7502C23.0267 24.2626 22.9203 24.8188 22.9398 25.3778C22.9411 25.6916 22.9809 26.0042 23.0584 26.3084C23.2552 27.0392 23.5578 27.7375 23.9567 28.3811C24.2444 28.8741 24.5584 29.3513 24.8973 29.8108C25.9985 31.3201 27.3828 32.6016 28.9733 33.584C29.7715 34.0833 30.6245 34.4893 31.5156 34.7938C32.4412 35.2127 33.4632 35.3735 34.4731 35.2591C35.0484 35.1722 35.5936 34.9454 36.0605 34.5987C36.5275 34.2521 36.9019 33.7961 37.1509 33.271C37.2972 32.9538 37.3416 32.5992 37.278 32.2558C37.1255 31.5536 36.1848 31.1391 35.6086 30.8007Z" fill="white"/>
</svg>
