<svg width="92" height="93" viewBox="0 0 92 93" fill="none" xmlns="http://www.w3.org/2000/svg">
<path d="M25.4728 44.7301C25.4728 44.7301 44.1008 36.8844 50.5613 34.1217C53.0379 33.0167 61.4366 29.4804 61.4366 29.4804C61.4366 29.4804 65.313 27.9334 64.9899 31.6905C64.8822 33.2377 64.0208 38.6523 63.1595 44.5091C61.8673 52.7971 60.4675 61.8584 60.4675 61.8584C60.4675 61.8584 60.2522 64.4001 58.4217 64.8421C56.5912 65.2841 53.5762 63.2951 53.0379 62.853C52.6071 62.5216 44.9622 57.5487 42.1626 55.1176C41.4088 54.4546 40.5475 53.1286 42.2702 51.5815C46.1466 47.9348 50.7766 43.4042 53.5762 40.531C54.8684 39.2049 56.1604 36.1108 50.7766 39.8679C43.1317 45.2827 35.5944 50.366 35.5944 50.366C35.5944 50.366 33.8715 51.4709 30.6413 50.4764C27.4109 49.482 23.6422 48.1558 23.6422 48.1558C23.6422 48.1558 21.0582 46.4983 25.4728 44.7301Z" fill="white"/>
</svg>
