<svg xmlns="http://www.w3.org/2000/svg" width="245" height="48" fill="none">
  <path fill="#A2322C" fill-rule="evenodd" d="M18.34 36.77c1.18 0 2.14.98 2.14 2.18v6.87c0 1.2-.96 2.18-2.14 2.18a2.16 2.16 0 0 1-2.14-2.18v-6.87c0-1.2.96-2.18 2.14-2.18Z" clip-rule="evenodd"/>
  <path fill="#932E27" fill-rule="evenodd" d="M22.62 35.7c1.18 0 2.14.97 2.14 2.17v5.97c0 1.2-.96 2.18-2.14 2.18a2.16 2.16 0 0 1-2.14-2.18v-5.97c0-1.2.96-2.17 2.14-2.17ZM14.06 35.7c1.18 0 2.14.97 2.14 2.17v5.97c0 1.2-.96 2.18-2.14 2.18a2.16 2.16 0 0 1-2.14-2.18v-5.97c0-1.2.96-2.17 2.14-2.17Z" clip-rule="evenodd"/>
  <path fill="#9E342C" fill-rule="evenodd" d="M5.83 16.41c.13 7.74.27 12.34 3.3 19.56-4.42-3.08-10.93-17.14-3.3-19.56ZM30.54 16.41c-.13 7.74-.27 12.34-3.3 19.56 4.41-3.08 10.92-17.14 3.3-19.56Z" clip-rule="evenodd"/>
  <path fill="#DB6D44" fill-rule="evenodd" d="M18.22 9.71c5.8 0 11.34-4.12 11.34-4.12-.24 3.88-.19 6.46 1.3 13.2-3.87.04-8.67.11-12.64-.34-3.96.45-8.76.38-12.63.35 1.48-6.75 1.54-9.33 1.3-13.21 0 0 5.53 4.12 11.33 4.12Z" clip-rule="evenodd"/>
  <path fill="#E7764E" fill-rule="evenodd" d="M30.85 17.94c0 7.03 1.53 21.4-12.07 21.4-15.04 0-13.51-14.37-13.51-21.4 0-7.03 5.55-11.11 12.62-11.11 7.06 0 12.96 4.08 12.96 11.11Z" clip-rule="evenodd"/>
  <path fill="#332D2B" fill-rule="evenodd" d="M18 0 .02 1.99 0 2.35 18 4.4 36 2.35l.01-.36L18 0Z" clip-rule="evenodd"/>
  <path fill="#050000" fill-rule="evenodd" d="M18 .36 0 2.35l18 2.42 17.99-2.42-18-1.99Z" clip-rule="evenodd"/>
  <path fill="#332D2B" fill-rule="evenodd" d="M10.06 2.7C15.3 2 20.5 2 25.68 2.78l.97 6.72H9.2l.87-6.8Z" clip-rule="evenodd"/>
  <path fill="#050000" fill-rule="evenodd" d="M27.36 1.03c.66-.25 2.94-.42 3.36.16.37.51.7 15.34.7 15.34l-.4.03s-.64-15.2-.68-15.2l-2.98-.33Z" clip-rule="evenodd"/>
  <path fill="#050000" fill-rule="evenodd" d="M30.75 14.6c-.15.32.1.52.12.64.01.11 0 .77-.13 2.2-.13 1.42.04 2.6.04 2.6s.16-.4.16-.37c0 .03.1.4.11.36l.14-.34.23.62.05-.6s.15.46.17.38l.13-.3s.17.32.18.25l.08-.42s.2.47.2.42l.08-.5s-.07-1.7-.34-2.82l-.37-1.5s.15-.18.11-.47c-.07-.54-.86-.37-.96-.14Z" clip-rule="evenodd"/>
  <path fill="#80251E" fill-rule="evenodd" d="M23.72 10.55a6.7 6.7 0 0 0-5.65 3.2 6.7 6.7 0 0 0-5.65-3.2c-3.77 0-6.81 3.24-6.81 7.24s3.04 7.24 6.8 7.24c2.36 0 4.43-.55 5.66-2.48 1.22 1.93 3.3 2.48 5.65 2.48 3.76 0 6.8-3.24 6.8-7.24s-3.04-7.24-6.8-7.24Z" clip-rule="evenodd"/>
  <path fill="#80251E" fill-rule="evenodd" d="M18.07 12.24c-1.68-2.29-7.36-2.25-6.6-4.37-3.69 3.24-1.02 4.85 1.8 5.08 1.68.14 3.89 1.44 4.8 2.01.9-.57 3.12-1.87 4.79-2 2.82-.24 5.49-1.85 1.8-5.1.76 2.13-4.92 2.09-6.6 4.38Z" clip-rule="evenodd"/>
  <path fill="#6B1D19" fill-rule="evenodd" d="M28.32 18.9a4.39 4.39 0 0 1-4.35 4.43 4.39 4.39 0 0 1-4.35-4.42 4.39 4.39 0 0 1 4.35-4.42c2.4 0 4.35 1.97 4.35 4.42ZM16.52 18.9a4.39 4.39 0 0 1-4.34 4.43 4.39 4.39 0 0 1-4.35-4.42 4.39 4.39 0 0 1 4.35-4.42c2.4 0 4.34 1.97 4.34 4.42Z" clip-rule="evenodd"/>
  <path fill="#F7F7F7" d="M28.39 18.16a4.4 4.4 0 0 0-3.85-4.87 4.37 4.37 0 0 0-4.8 3.91 4.4 4.4 0 0 0 3.85 4.88 4.37 4.37 0 0 0 4.8-3.91Z"/>
  <path fill="#231916" fill-rule="evenodd" d="M26.2 17.69c0 1.2-.95 2.18-2.14 2.18a2.17 2.17 0 0 1-2.15-2.18c0-1.2.97-2.18 2.15-2.18 1.19 0 2.15.97 2.15 2.18Z" clip-rule="evenodd"/>
  <path fill="#fff" fill-rule="evenodd" d="M25.76 17.1c0 .52-.41.94-.91.94a.92.92 0 0 1-.92-.93c0-.52.41-.93.92-.93.5 0 .91.41.91.93Z" clip-rule="evenodd"/>
  <path fill="#F7F7F7" d="M16.59 18.13a4.4 4.4 0 0 0-3.9-4.85 4.37 4.37 0 0 0-4.75 3.96 4.4 4.4 0 0 0 3.89 4.84 4.37 4.37 0 0 0 4.76-3.95Z"/>
  <path fill="#231916" fill-rule="evenodd" d="M14.41 17.69c0 1.2-.96 2.18-2.15 2.18a2.17 2.17 0 0 1-2.14-2.18c0-1.2.96-2.18 2.14-2.18 1.2 0 2.15.97 2.15 2.18Z" clip-rule="evenodd"/>
  <path fill="#fff" fill-rule="evenodd" d="M13.96 17.1c0 .52-.4.94-.91.94a.92.92 0 0 1-.92-.93c0-.52.41-.93.92-.93.5 0 .91.41.91.93Z" clip-rule="evenodd"/>
  <path fill="#F29600" fill-rule="evenodd" d="M18.07 20.3c-.55 0-1.1.13-1.67.42a6.78 6.78 0 0 0 1.67 4.07c.99-1.2 1.6-2.58 1.66-4.07a3.55 3.55 0 0 0-1.66-.43Z" clip-rule="evenodd"/>
  <path fill="#B75C3C" fill-rule="evenodd" d="M12.75 28.33c-1 0-1.83-.73-1.89-1.65a3.6 3.6 0 0 0 3.78-.03c-.05.94-.88 1.68-1.9 1.68ZM18.1 28.47c-1.01 0-1.84-.74-1.9-1.66a3.6 3.6 0 0 0 3.78-.02c-.04.93-.87 1.68-1.89 1.68ZM23.44 28.51c-1.01 0-1.83-.73-1.9-1.65a3.6 3.6 0 0 0 3.79-.03c-.05.94-.88 1.68-1.9 1.68ZM10.07 31.6c-1.01 0-1.83-.72-1.9-1.65a3.6 3.6 0 0 0 3.79-.02c-.05.93-.88 1.68-1.9 1.68ZM15.42 31.6c-1.01 0-1.83-.72-1.9-1.65a3.6 3.6 0 0 0 3.79-.02c-.05.93-.88 1.68-1.9 1.68ZM20.77 31.6c-1 0-1.83-.72-1.9-1.65a3.6 3.6 0 0 0 3.79-.02c-.05.93-.88 1.68-1.9 1.68ZM26.12 31.6c-1 0-1.83-.72-1.89-1.65a3.6 3.6 0 0 0 3.78-.02c-.05.93-.87 1.68-1.89 1.68ZM12.75 34.37c-1 0-1.83-.73-1.89-1.65a3.6 3.6 0 0 0 3.78-.03c-.05.94-.88 1.68-1.9 1.68ZM18.1 34.5c-1.01 0-1.84-.72-1.9-1.65a3.6 3.6 0 0 0 3.78-.02c-.04.93-.87 1.68-1.89 1.68ZM23.44 34.55c-1.01 0-1.83-.73-1.9-1.65a3.6 3.6 0 0 0 3.79-.03c-.05.94-.88 1.68-1.9 1.68ZM20.42 37.01c-1 0-1.83-.73-1.89-1.65a3.6 3.6 0 0 0 3.78-.03c-.05.94-.87 1.68-1.89 1.68ZM15.76 37.01c-1 0-1.82-.73-1.88-1.65a3.6 3.6 0 0 0 3.78-.03c-.05.94-.88 1.68-1.9 1.68Z" clip-rule="evenodd"/>
  <path fill="#80251E" fill-rule="evenodd" d="M14.61 44.05c-1.16 0-2.16-1.02-2.7-2.54v2.33c0 1.2.97 2.18 2.15 2.18s2.14-.98 2.14-2.18v-.5c-.46.46-1 .71-1.59.71ZM22.06 44.05c1.16 0 2.17-1.02 2.7-2.54v2.33c0 1.2-.96 2.18-2.14 2.18a2.16 2.16 0 0 1-2.14-2.18v-.5c.46.46 1 .71 1.58.71Z" clip-rule="evenodd"/>
  <path fill="#F29600" fill-rule="evenodd" d="M11.2 37.26c.35 0 .65.3.65.67v2.19c0 .36-.3.66-.66.66a.66.66 0 0 1-.65-.66v-2.2c0-.36.3-.66.65-.66Z" clip-rule="evenodd"/>
  <path fill="#F29600" fill-rule="evenodd" d="M12.47 37.26c.36 0 .65.3.65.67v2.19c0 .36-.3.66-.65.66a.66.66 0 0 1-.66-.66v-2.2c0-.36.3-.66.66-.66Z" clip-rule="evenodd"/>
  <path fill="#F29600" fill-rule="evenodd" d="M13.76 37.26c.36 0 .66.3.66.67v2.19c0 .36-.3.66-.66.66a.66.66 0 0 1-.65-.66v-2.2c0-.36.3-.66.65-.66ZM22.37 37.26c.36 0 .65.3.65.67v2.19c0 .36-.3.66-.65.66a.66.66 0 0 1-.66-.66v-2.2c0-.36.3-.66.66-.66Z" clip-rule="evenodd"/>
  <path fill="#F29600" fill-rule="evenodd" d="M23.64 37.26c.36 0 .66.3.66.67v2.19c0 .36-.3.66-.66.66a.66.66 0 0 1-.65-.66v-2.2c0-.36.3-.66.65-.66Z" clip-rule="evenodd"/>
  <path fill="#F29600" fill-rule="evenodd" d="M24.94 37.26c.36 0 .65.3.65.67v2.19c0 .36-.29.66-.65.66a.66.66 0 0 1-.65-.66v-2.2c0-.36.3-.66.65-.66Z" clip-rule="evenodd"/>
  <path fill="#80251E" fill-rule="evenodd" d="M18.34 48c1.18 0 2.14-.98 2.14-2.18v-.7c-.56.9-1.33 1.46-2.19 1.46-.8 0-1.54-.5-2.1-1.32v.56c0 1.2.97 2.18 2.15 2.18Z" clip-rule="evenodd"/>
  <path fill="#1A1A1A" fill-rule="evenodd" d="M26.84 13.9h-5.37A2.1 2.1 0 0 0 19.4 16v.3a2.84 2.84 0 0 0-2.72-.03V16a2.1 2.1 0 0 0-2.08-2.1H9.23A2.1 2.1 0 0 0 7.16 16v3.24a2.1 2.1 0 0 0 2.07 2.1h5.37a2.1 2.1 0 0 0 2.08-2.1V17.1a2.86 2.86 0 0 1 2.72.04v2.1a2.1 2.1 0 0 0 2.07 2.1h5.37a2.1 2.1 0 0 0 2.08-2.1V16a2.1 2.1 0 0 0-2.08-2.1Zm-10.7 5.34c0 .86-.69 1.56-1.54 1.56H9.23c-.85 0-1.54-.7-1.54-1.56V16c0-.86.7-1.57 1.54-1.57h5.37c.85 0 1.54.7 1.54 1.57v3.24Zm12.24 0c0 .86-.69 1.56-1.54 1.56h-5.37c-.85 0-1.54-.7-1.54-1.56V16c0-.86.7-1.57 1.54-1.57h5.37c.85 0 1.54.7 1.54 1.57v3.24Z" clip-rule="evenodd"/>
  <path fill="#4D4D4D" fill-rule="evenodd" d="M26.84 14.14h-5.37a2.1 2.1 0 0 0-2.07 2.11v.3a2.85 2.85 0 0 0-2.72-.03v-.27a2.1 2.1 0 0 0-2.08-2.1H9.23a2.1 2.1 0 0 0-2.07 2.1v3.24a2.1 2.1 0 0 0 2.07 2.1h5.37a2.1 2.1 0 0 0 2.08-2.1v-2.14a2.86 2.86 0 0 1 2.72.04v2.1a2.1 2.1 0 0 0 2.07 2.1h5.37a2.1 2.1 0 0 0 2.08-2.1v-3.24a2.1 2.1 0 0 0-2.08-2.1ZM7.7 16.25c0-.86.7-1.57 1.54-1.57h5.37c.85 0 1.54.7 1.54 1.57v3.24c0 .86-.69 1.56-1.54 1.56H9.23c-.85 0-1.54-.7-1.54-1.56v-3.24Zm12.24 0c0-.86.7-1.57 1.54-1.57h5.37c.85 0 1.54.7 1.54 1.57v3.24c0 .86-.69 1.56-1.54 1.56h-5.37c-.85 0-1.54-.7-1.54-1.56v-3.24Z" clip-rule="evenodd"/>
  <path fill="#F2F2F2" fill-rule="evenodd" d="M16.14 16.25v2.99c0 .86-.69 1.56-1.54 1.56H9.23c-.85 0-1.54-.7-1.54-1.56v-2.99c0-.86.7-1.57 1.54-1.57h5.37c.85 0 1.54.7 1.54 1.57ZM28.38 16.25v2.99c0 .86-.69 1.56-1.54 1.56h-5.37c-.85 0-1.54-.7-1.54-1.56v-2.99c0-.86.7-1.57 1.54-1.57h5.37c.85 0 1.54.7 1.54 1.57Z" clip-rule="evenodd" opacity=".55"/>
  <mask id="a" width="10" height="7" x="7" y="14" maskUnits="userSpaceOnUse" style="mask-type:luminance">
    <path fill="#fff" d="M16.14 16.25v2.99c0 .86-.69 1.56-1.54 1.56H9.23c-.85 0-1.54-.7-1.54-1.56v-2.99c0-.86.7-1.57 1.54-1.57h5.37c.85 0 1.54.7 1.54 1.57Z"/>
  </mask>
  <g mask="url(#a)">
    <path fill="#F2F2F2" fill-rule="evenodd" d="m11.01 21.25-1.61-.01 2.51-7.2 1.62.03L11 21.25Z" clip-rule="evenodd"/>
  </g>
  <mask id="b" width="9" height="7" x="20" y="14" maskUnits="userSpaceOnUse" style="mask-type:luminance">
    <path fill="#fff" d="M28.47 16.25v2.99c0 .86-.7 1.56-1.55 1.56h-5.37c-.84 0-1.54-.7-1.54-1.56v-2.99c0-.86.7-1.57 1.54-1.57h5.37c.85 0 1.55.7 1.55 1.57Z"/>
  </mask>
  <g mask="url(#b)">
    <path fill="#F2F2F2" fill-rule="evenodd" d="m23.33 21.25-1.61-.01 2.51-7.2 1.62.03-2.52 7.18Z" clip-rule="evenodd"/>
  </g>
  <path fill="#000" d="M54.71 15.25c1.5 0 2.82.3 3.96.9a6.23 6.23 0 0 1 2.66 2.6c.65 1.13.97 2.47.97 4.04V31h-5.19v-3.1h-4.88V31h-5.1v-8.2c0-1.58.3-2.92.94-4.05.64-1.15 1.54-2.01 2.68-2.6 1.15-.6 2.47-.9 3.96-.9Zm2.4 8.73v-1.63c0-.95-.23-1.67-.68-2.15a2.23 2.23 0 0 0-1.76-.75 2.3 2.3 0 0 0-1.78.75c-.44.48-.66 1.2-.66 2.15v1.63h4.88Zm20.57-5.01v9.63c0 2.29-.64 4-1.91 5.15-1.27 1.16-3.05 1.74-5.37 1.74-1.19 0-2.3-.13-3.35-.4a8.32 8.32 0 0 1-2.64-1.1l1.68-3.39a7 7 0 0 0 3.8 1.19c.98 0 1.7-.21 2.14-.64.45-.42.68-1.04.68-1.87v-.08a4.62 4.62 0 0 1-3.17 1.14 4.97 4.97 0 0 1-3.67-1.39c-.93-.93-1.39-2.34-1.39-4.22v-5.76h4.97v4.9c0 .82.13 1.41.4 1.76.26.35.65.53 1.16.53.49 0 .9-.2 1.21-.57.33-.4.49-1.01.49-1.85v-4.77h4.97Zm18.2-.22c1.45 0 2.61.44 3.48 1.34.88.9 1.31 2.24 1.31 4.05V31H95.7v-6c0-1.38-.44-2.07-1.34-2.07-.47 0-.85.17-1.14.52-.28.36-.42.91-.42 1.68V31h-4.97v-6c0-1.38-.45-2.07-1.34-2.07-.47 0-.86.17-1.15.52-.28.36-.42.91-.42 1.68V31h-4.97V18.97h4.73v1.12c.9-.9 2.03-1.34 3.41-1.34a5 5 0 0 1 2.18.46c.64.3 1.17.75 1.58 1.36a5.28 5.28 0 0 1 4.03-1.83Zm13.18 12.47a8.29 8.29 0 0 1-3.67-.8 5.94 5.94 0 0 1-3.43-5.46 5.83 5.83 0 0 1 3.43-5.42 8.29 8.29 0 0 1 3.67-.8c1.47 0 2.72.32 3.76.95a4.91 4.91 0 0 1 2.16 2.62l-3.85 1.9c-.47-1.06-1.17-1.6-2.1-1.6-.58 0-1.07.21-1.47.62-.38.41-.57 1-.57 1.74 0 .76.2 1.35.57 1.76.4.41.9.62 1.48.62.92 0 1.62-.53 2.09-1.59l3.85 1.9a4.91 4.91 0 0 1-2.16 2.61c-1.04.63-2.3.95-3.76.95Zm13.38 0a8.05 8.05 0 0 1-3.6-.8 5.94 5.94 0 0 1-3.39-5.46c0-1.2.3-2.26.9-3.2a6.1 6.1 0 0 1 2.48-2.22 8.05 8.05 0 0 1 3.61-.8c1.35 0 2.55.27 3.61.8a5.9 5.9 0 0 1 3.39 5.43 5.93 5.93 0 0 1-3.39 5.46c-1.06.53-2.26.79-3.6.79Zm0-3.87c.57 0 1.04-.2 1.41-.62a2.6 2.6 0 0 0 .55-1.76c0-.75-.18-1.33-.55-1.74a1.8 1.8 0 0 0-1.4-.61c-.58 0-1.05.2-1.42.61-.36.41-.55 1-.55 1.74 0 .75.19 1.34.55 1.76.37.41.84.62 1.41.62Zm15.25-8.6c2.05 0 3.66.55 4.84 1.67 1.17 1.1 1.76 2.62 1.76 4.57 0 1.25-.25 2.34-.73 3.28a5.2 5.2 0 0 1-2.07 2.18c-.88.51-1.9.77-3.06.77-.63 0-1.18-.08-1.65-.24a3.28 3.28 0 0 1-1.23-.82v5.1h-4.97V25.05a5.76 5.76 0 0 1 3.37-5.52 8.56 8.56 0 0 1 3.74-.77Zm-.27 8.6c.6 0 1.08-.2 1.43-.62.36-.42.53-1 .53-1.74 0-.71-.17-1.29-.53-1.71a1.73 1.73 0 0 0-1.43-.66c-.6 0-1.07.22-1.43.66-.35.42-.53 1-.53 1.71 0 .74.18 1.32.53 1.74.35.41.83.62 1.43.62Zm8.5-4.58h6.6v3.74h-6.6v-3.74Zm16.7 8.58c-1.63 0-3.1-.34-4.4-1.01a7.82 7.82 0 0 1-3.08-2.86 8 8 0 0 1-1.1-4.18 7.62 7.62 0 0 1 4.18-7.02 9.28 9.28 0 0 1 4.4-1.03c1.5 0 2.83.26 4 .79a7.44 7.44 0 0 1 2.9 2.29l-3.27 2.92c-.96-1.2-2.08-1.8-3.37-1.8-1.09 0-1.96.35-2.62 1.06a3.87 3.87 0 0 0-.99 2.79c0 1.17.33 2.11 1 2.82a3.46 3.46 0 0 0 2.61 1.03c1.29 0 2.41-.6 3.37-1.8l3.27 2.92a7.44 7.44 0 0 1-2.9 2.29c-1.17.53-2.5.8-4 .8Zm14.16-.13a8.05 8.05 0 0 1-3.61-.8 5.94 5.94 0 0 1-3.39-5.46c0-1.2.3-2.26.9-3.2a6.1 6.1 0 0 1 2.49-2.22 8.05 8.05 0 0 1 3.6-.8c1.36 0 2.56.27 3.61.8a5.9 5.9 0 0 1 3.4 5.43 5.93 5.93 0 0 1-3.4 5.46c-1.05.53-2.25.79-3.6.79Zm0-3.87c.57 0 1.04-.2 1.4-.62a2.6 2.6 0 0 0 .55-1.76c0-.75-.18-1.33-.55-1.74a1.8 1.8 0 0 0-1.4-.61c-.58 0-1.04.2-1.41.61-.37.41-.55 1-.55 1.74 0 .75.18 1.34.55 1.76.37.41.83.62 1.4.62Zm18.76-2.66c1.32.5 1.98 1.43 1.98 2.79 0 1.1-.43 1.97-1.3 2.6-.86.61-2.13.92-3.8.92h-7.1V18.97h6.75c1.6 0 2.86.27 3.76.83.9.54 1.34 1.31 1.34 2.31 0 .56-.14 1.06-.42 1.5-.28.44-.68.8-1.2 1.08Zm-5.87-.97h1.96c.71 0 1.07-.29 1.07-.86 0-.28-.08-.48-.26-.62-.16-.13-.43-.2-.81-.2h-1.96v1.68Zm2.3 4.2c.72 0 1.09-.3 1.09-.9 0-.57-.37-.86-1.08-.86h-2.31v1.76h2.3Zm7.37-12.32h13.36v3.92h-8.25v1.78h3.67c1.88 0 3.32.4 4.31 1.2 1.02.8 1.52 1.95 1.52 3.46 0 1.57-.57 2.8-1.71 3.7-1.15.9-2.74 1.34-4.78 1.34h-8.12V15.6Zm7.77 11.77c.51 0 .91-.11 1.19-.33.3-.22.44-.54.44-.95 0-.79-.54-1.18-1.63-1.18h-2.66v2.46h2.66Zm21.52-8.4v9.63c0 2.29-.64 4-1.91 5.15-1.27 1.16-3.06 1.74-5.37 1.74-1.2 0-2.3-.13-3.35-.4a8.31 8.31 0 0 1-2.64-1.1l1.67-3.39a7 7 0 0 0 3.8 1.19c1 0 1.7-.21 2.15-.64.45-.42.68-1.04.68-1.87v-.08a4.62 4.62 0 0 1-3.17 1.14 4.97 4.97 0 0 1-3.68-1.39c-.92-.93-1.38-2.34-1.38-4.22v-5.76h4.97v4.9c0 .82.13 1.41.4 1.76.26.35.65.53 1.16.53.49 0 .89-.2 1.21-.57.33-.4.49-1.01.49-1.85v-4.77h4.97ZM238.56 31l-1.65-2.57-1.85 2.57h-5.4l4.56-5.96-4.42-6.07h5.61l1.72 2.55 1.8-2.55h5.21l-4.42 5.85 4.53 6.18h-5.7Z"/>
</svg>
