<svg xmlns="http://www.w3.org/2000/svg" width="205" height="48" fill="none">
  <path fill="#A2322C" fill-rule="evenodd" d="M18.34 36.77c1.18 0 2.14.98 2.14 2.18v6.87c0 1.2-.96 2.18-2.14 2.18a2.16 2.16 0 0 1-2.14-2.18v-6.87c0-1.2.96-2.18 2.14-2.18Z" clip-rule="evenodd"/>
  <path fill="#932E27" fill-rule="evenodd" d="M22.62 35.7c1.18 0 2.14.97 2.14 2.17v5.97c0 1.2-.96 2.18-2.14 2.18a2.16 2.16 0 0 1-2.14-2.18v-5.97c0-1.2.96-2.17 2.14-2.17ZM14.06 35.7c1.18 0 2.14.97 2.14 2.17v5.97c0 1.2-.96 2.18-2.14 2.18a2.16 2.16 0 0 1-2.14-2.18v-5.97c0-1.2.96-2.17 2.14-2.17Z" clip-rule="evenodd"/>
  <path fill="#9E342C" fill-rule="evenodd" d="M5.83 16.41c.13 7.74.27 12.34 3.3 19.56-4.42-3.08-10.93-17.14-3.3-19.56ZM30.54 16.41c-.13 7.74-.27 12.34-3.3 19.56 4.41-3.08 10.92-17.14 3.3-19.56Z" clip-rule="evenodd"/>
  <path fill="#DB6D44" fill-rule="evenodd" d="M18.22 9.71c5.8 0 11.34-4.12 11.34-4.12-.24 3.88-.19 6.46 1.3 13.2-3.87.04-8.67.11-12.64-.34-3.96.45-8.76.38-12.63.35 1.48-6.75 1.54-9.33 1.3-13.21 0 0 5.53 4.12 11.33 4.12Z" clip-rule="evenodd"/>
  <path fill="#E7764E" fill-rule="evenodd" d="M30.85 17.94c0 7.03 1.53 21.4-12.07 21.4-15.04 0-13.51-14.37-13.51-21.4 0-7.03 5.55-11.11 12.62-11.11 7.06 0 12.96 4.08 12.96 11.11Z" clip-rule="evenodd"/>
  <path fill="#332D2B" fill-rule="evenodd" d="M18 0 .02 1.99 0 2.35 18 4.4 36 2.35l.01-.36L18 0Z" clip-rule="evenodd"/>
  <path fill="#050000" fill-rule="evenodd" d="M18 .36 0 2.35l18 2.42 17.99-2.42-18-1.99Z" clip-rule="evenodd"/>
  <path fill="#332D2B" fill-rule="evenodd" d="M10.06 2.7C15.3 2 20.5 2 25.68 2.78l.97 6.72H9.2l.87-6.8Z" clip-rule="evenodd"/>
  <path fill="#050000" fill-rule="evenodd" d="M27.36 1.03c.66-.25 2.94-.42 3.36.16.37.51.7 15.34.7 15.34l-.4.03s-.64-15.2-.68-15.2l-2.98-.33Z" clip-rule="evenodd"/>
  <path fill="#050000" fill-rule="evenodd" d="M30.75 14.6c-.15.32.1.52.12.64.01.11 0 .77-.13 2.2-.13 1.42.04 2.6.04 2.6s.16-.4.16-.37c0 .03.1.4.11.36l.14-.34.23.62.05-.6s.15.46.17.38l.13-.3s.17.32.18.25l.08-.42s.2.47.2.42l.08-.5s-.07-1.7-.34-2.82l-.37-1.5s.15-.18.11-.47c-.07-.54-.86-.37-.96-.14Z" clip-rule="evenodd"/>
  <path fill="#80251E" fill-rule="evenodd" d="M23.72 10.55a6.7 6.7 0 0 0-5.65 3.2 6.7 6.7 0 0 0-5.65-3.2c-3.77 0-6.81 3.24-6.81 7.24s3.04 7.24 6.8 7.24c2.36 0 4.43-.55 5.66-2.48 1.22 1.93 3.3 2.48 5.65 2.48 3.76 0 6.8-3.24 6.8-7.24s-3.04-7.24-6.8-7.24Z" clip-rule="evenodd"/>
  <path fill="#80251E" fill-rule="evenodd" d="M18.07 12.24c-1.68-2.29-7.36-2.25-6.6-4.37-3.69 3.24-1.02 4.85 1.8 5.08 1.68.14 3.89 1.44 4.8 2.01.9-.57 3.12-1.87 4.79-2 2.82-.24 5.49-1.85 1.8-5.1.76 2.13-4.92 2.09-6.6 4.38Z" clip-rule="evenodd"/>
  <path fill="#6B1D19" fill-rule="evenodd" d="M28.32 18.9a4.39 4.39 0 0 1-4.35 4.43 4.39 4.39 0 0 1-4.35-4.42 4.39 4.39 0 0 1 4.35-4.42c2.4 0 4.35 1.97 4.35 4.42ZM16.52 18.9a4.39 4.39 0 0 1-4.34 4.43 4.39 4.39 0 0 1-4.35-4.42 4.39 4.39 0 0 1 4.35-4.42c2.4 0 4.34 1.97 4.34 4.42Z" clip-rule="evenodd"/>
  <path fill="#F7F7F7" d="M28.39 18.16a4.4 4.4 0 0 0-3.85-4.87 4.37 4.37 0 0 0-4.8 3.91 4.4 4.4 0 0 0 3.85 4.88 4.37 4.37 0 0 0 4.8-3.91Z"/>
  <path fill="#231916" fill-rule="evenodd" d="M26.2 17.69c0 1.2-.95 2.18-2.14 2.18a2.17 2.17 0 0 1-2.15-2.18c0-1.2.97-2.18 2.15-2.18 1.19 0 2.15.97 2.15 2.18Z" clip-rule="evenodd"/>
  <path fill="#fff" fill-rule="evenodd" d="M25.76 17.1c0 .52-.41.94-.91.94a.92.92 0 0 1-.92-.93c0-.52.41-.93.92-.93.5 0 .91.41.91.93Z" clip-rule="evenodd"/>
  <path fill="#F7F7F7" d="M16.59 18.13a4.4 4.4 0 0 0-3.9-4.85 4.37 4.37 0 0 0-4.75 3.96 4.4 4.4 0 0 0 3.89 4.84 4.37 4.37 0 0 0 4.76-3.95Z"/>
  <path fill="#231916" fill-rule="evenodd" d="M14.41 17.69c0 1.2-.96 2.18-2.15 2.18a2.17 2.17 0 0 1-2.14-2.18c0-1.2.96-2.18 2.14-2.18 1.2 0 2.15.97 2.15 2.18Z" clip-rule="evenodd"/>
  <path fill="#fff" fill-rule="evenodd" d="M13.96 17.1c0 .52-.4.94-.91.94a.92.92 0 0 1-.92-.93c0-.52.41-.93.92-.93.5 0 .91.41.91.93Z" clip-rule="evenodd"/>
  <path fill="#F29600" fill-rule="evenodd" d="M18.07 20.3c-.55 0-1.1.13-1.67.42a6.78 6.78 0 0 0 1.67 4.07c.99-1.2 1.6-2.58 1.66-4.07a3.55 3.55 0 0 0-1.66-.43Z" clip-rule="evenodd"/>
  <path fill="#B75C3C" fill-rule="evenodd" d="M12.75 28.33c-1 0-1.83-.73-1.89-1.65a3.6 3.6 0 0 0 3.78-.03c-.05.94-.88 1.68-1.9 1.68ZM18.1 28.47c-1.01 0-1.84-.74-1.9-1.66a3.6 3.6 0 0 0 3.78-.02c-.04.93-.87 1.68-1.89 1.68ZM23.44 28.51c-1.01 0-1.83-.73-1.9-1.65a3.6 3.6 0 0 0 3.79-.03c-.05.94-.88 1.68-1.9 1.68ZM10.07 31.6c-1.01 0-1.83-.72-1.9-1.65a3.6 3.6 0 0 0 3.79-.02c-.05.93-.88 1.68-1.9 1.68ZM15.42 31.6c-1.01 0-1.83-.72-1.9-1.65a3.6 3.6 0 0 0 3.79-.02c-.05.93-.88 1.68-1.9 1.68ZM20.77 31.6c-1 0-1.83-.72-1.9-1.65a3.6 3.6 0 0 0 3.79-.02c-.05.93-.88 1.68-1.9 1.68ZM26.12 31.6c-1 0-1.83-.72-1.89-1.65a3.6 3.6 0 0 0 3.78-.02c-.05.93-.87 1.68-1.89 1.68ZM12.75 34.37c-1 0-1.83-.73-1.89-1.65a3.6 3.6 0 0 0 3.78-.03c-.05.94-.88 1.68-1.9 1.68ZM18.1 34.5c-1.01 0-1.84-.72-1.9-1.65a3.6 3.6 0 0 0 3.78-.02c-.04.93-.87 1.68-1.89 1.68ZM23.44 34.55c-1.01 0-1.83-.73-1.9-1.65a3.6 3.6 0 0 0 3.79-.03c-.05.94-.88 1.68-1.9 1.68ZM20.42 37.01c-1 0-1.83-.73-1.89-1.65a3.6 3.6 0 0 0 3.78-.03c-.05.94-.87 1.68-1.89 1.68ZM15.76 37.01c-1 0-1.82-.73-1.88-1.65a3.6 3.6 0 0 0 3.78-.03c-.05.94-.88 1.68-1.9 1.68Z" clip-rule="evenodd"/>
  <path fill="#80251E" fill-rule="evenodd" d="M14.61 44.05c-1.16 0-2.16-1.02-2.7-2.54v2.33c0 1.2.97 2.18 2.15 2.18s2.14-.98 2.14-2.18v-.5c-.46.46-1 .71-1.59.71ZM22.06 44.05c1.16 0 2.17-1.02 2.7-2.54v2.33c0 1.2-.96 2.18-2.14 2.18a2.16 2.16 0 0 1-2.14-2.18v-.5c.46.46 1 .71 1.58.71Z" clip-rule="evenodd"/>
  <path fill="#F29600" fill-rule="evenodd" d="M11.2 37.26c.35 0 .65.3.65.67v2.19c0 .36-.3.66-.66.66a.66.66 0 0 1-.65-.66v-2.2c0-.36.3-.66.65-.66Z" clip-rule="evenodd"/>
  <path fill="#F29600" fill-rule="evenodd" d="M12.47 37.26c.36 0 .65.3.65.67v2.19c0 .36-.3.66-.65.66a.66.66 0 0 1-.66-.66v-2.2c0-.36.3-.66.66-.66Z" clip-rule="evenodd"/>
  <path fill="#F29600" fill-rule="evenodd" d="M13.76 37.26c.36 0 .66.3.66.67v2.19c0 .36-.3.66-.66.66a.66.66 0 0 1-.65-.66v-2.2c0-.36.3-.66.65-.66ZM22.37 37.26c.36 0 .65.3.65.67v2.19c0 .36-.3.66-.65.66a.66.66 0 0 1-.66-.66v-2.2c0-.36.3-.66.66-.66Z" clip-rule="evenodd"/>
  <path fill="#F29600" fill-rule="evenodd" d="M23.64 37.26c.36 0 .66.3.66.67v2.19c0 .36-.3.66-.66.66a.66.66 0 0 1-.65-.66v-2.2c0-.36.3-.66.65-.66Z" clip-rule="evenodd"/>
  <path fill="#F29600" fill-rule="evenodd" d="M24.94 37.26c.36 0 .65.3.65.67v2.19c0 .36-.29.66-.65.66a.66.66 0 0 1-.65-.66v-2.2c0-.36.3-.66.65-.66Z" clip-rule="evenodd"/>
  <path fill="#80251E" fill-rule="evenodd" d="M18.34 48c1.18 0 2.14-.98 2.14-2.18v-.7c-.56.9-1.33 1.46-2.19 1.46-.8 0-1.54-.5-2.1-1.32v.56c0 1.2.97 2.18 2.15 2.18Z" clip-rule="evenodd"/>
  <path fill="#1A1A1A" fill-rule="evenodd" d="M26.84 13.9h-5.37A2.1 2.1 0 0 0 19.4 16v.3a2.84 2.84 0 0 0-2.72-.03V16a2.1 2.1 0 0 0-2.08-2.1H9.23A2.1 2.1 0 0 0 7.16 16v3.24a2.1 2.1 0 0 0 2.07 2.1h5.37a2.1 2.1 0 0 0 2.08-2.1V17.1a2.86 2.86 0 0 1 2.72.04v2.1a2.1 2.1 0 0 0 2.07 2.1h5.37a2.1 2.1 0 0 0 2.08-2.1V16a2.1 2.1 0 0 0-2.08-2.1Zm-10.7 5.34c0 .86-.69 1.56-1.54 1.56H9.23c-.85 0-1.54-.7-1.54-1.56V16c0-.86.7-1.57 1.54-1.57h5.37c.85 0 1.54.7 1.54 1.57v3.24Zm12.24 0c0 .86-.69 1.56-1.54 1.56h-5.37c-.85 0-1.54-.7-1.54-1.56V16c0-.86.7-1.57 1.54-1.57h5.37c.85 0 1.54.7 1.54 1.57v3.24Z" clip-rule="evenodd"/>
  <path fill="#4D4D4D" fill-rule="evenodd" d="M26.84 14.14h-5.37a2.1 2.1 0 0 0-2.07 2.11v.3a2.85 2.85 0 0 0-2.72-.03v-.27a2.1 2.1 0 0 0-2.08-2.1H9.23a2.1 2.1 0 0 0-2.07 2.1v3.24a2.1 2.1 0 0 0 2.07 2.1h5.37a2.1 2.1 0 0 0 2.08-2.1v-2.14a2.86 2.86 0 0 1 2.72.04v2.1a2.1 2.1 0 0 0 2.07 2.1h5.37a2.1 2.1 0 0 0 2.08-2.1v-3.24a2.1 2.1 0 0 0-2.08-2.1ZM7.7 16.25c0-.86.7-1.57 1.54-1.57h5.37c.85 0 1.54.7 1.54 1.57v3.24c0 .86-.69 1.56-1.54 1.56H9.23c-.85 0-1.54-.7-1.54-1.56v-3.24Zm12.24 0c0-.86.7-1.57 1.54-1.57h5.37c.85 0 1.54.7 1.54 1.57v3.24c0 .86-.69 1.56-1.54 1.56h-5.37c-.85 0-1.54-.7-1.54-1.56v-3.24Z" clip-rule="evenodd"/>
  <path fill="#F2F2F2" fill-rule="evenodd" d="M16.14 16.25v2.99c0 .86-.69 1.56-1.54 1.56H9.23c-.85 0-1.54-.7-1.54-1.56v-2.99c0-.86.7-1.57 1.54-1.57h5.37c.85 0 1.54.7 1.54 1.57ZM28.38 16.25v2.99c0 .86-.69 1.56-1.54 1.56h-5.37c-.85 0-1.54-.7-1.54-1.56v-2.99c0-.86.7-1.57 1.54-1.57h5.37c.85 0 1.54.7 1.54 1.57Z" clip-rule="evenodd" opacity=".55"/>
  <mask id="a" width="10" height="7" x="7" y="14" maskUnits="userSpaceOnUse" style="mask-type:luminance">
    <path fill="#fff" d="M16.14 16.25v2.99c0 .86-.69 1.56-1.54 1.56H9.23c-.85 0-1.54-.7-1.54-1.56v-2.99c0-.86.7-1.57 1.54-1.57h5.37c.85 0 1.54.7 1.54 1.57Z"/>
  </mask>
  <g mask="url(#a)">
    <path fill="#F2F2F2" fill-rule="evenodd" d="m11.01 21.25-1.61-.01 2.51-7.2 1.62.03L11 21.25Z" clip-rule="evenodd"/>
  </g>
  <mask id="b" width="9" height="7" x="20" y="14" maskUnits="userSpaceOnUse" style="mask-type:luminance">
    <path fill="#fff" d="M28.47 16.25v2.99c0 .86-.7 1.56-1.55 1.56h-5.37c-.84 0-1.54-.7-1.54-1.56v-2.99c0-.86.7-1.57 1.54-1.57h5.37c.85 0 1.55.7 1.55 1.57Z"/>
  </mask>
  <g mask="url(#b)">
    <path fill="#F2F2F2" fill-rule="evenodd" d="m23.33 21.25-1.61-.01 2.51-7.2 1.62.03-2.52 7.18Z" clip-rule="evenodd"/>
  </g>
  <path fill="#000" d="M45.2 31.44a.86.86 0 0 1-.59-.22.63.63 0 0 1-.25-.5c0-.2.02-.37.07-.5l4.77-12.06H51l4.77 12.06c.05.13.07.3.07.5s-.08.36-.25.5a.86.86 0 0 1-.59.22c-.41 0-.7-.21-.85-.64l-1.35-3.46h-5.4l-1.35 3.47c-.18.42-.46.63-.85.63Zm2.88-5.78h4.04l-2.04-4.98-2 4.98Zm11.73 9.56c-.53 0-.97-.09-1.31-.27-.34-.17-.6-.44-.76-.81a3.34 3.34 0 0 1-.25-1.38c0-.36.07-.64.2-.83.15-.2.36-.29.64-.29s.49.08.63.25c.14.17.2.41.2.73 0 .37.06.62.16.74s.31.18.63.18h6.18c.26 0 .43-.04.5-.11.06-.07.1-.26.1-.57v-2.62c-.84.59-2 .88-3.5.88h-.58c-1.28 0-2.3-.12-3.05-.35a2.76 2.76 0 0 1-1.62-1.15 4.2 4.2 0 0 1-.5-2.18v-4.96c0-.64.29-.96.85-.96s.84.32.84.96v4.9c0 .59.08 1.03.24 1.33.16.3.5.49.99.59.5.1 1.25.14 2.25.14h.58c1.17 0 2.05-.25 2.63-.76.58-.51.87-1.29.87-2.32v-3.88c0-.64.28-.96.84-.96.56 0 .84.32.84.96v10.06c0 .97-.16 1.66-.48 2.07-.32.4-.88.61-1.66.61H59.8Zm15.01-3.96c-.61 0-.92-.3-.92-.9v-7.02h-2.88c-.65 0-.98-.28-.98-.84 0-.56.33-.84.98-.84h7.62c.65 0 .98.28.98.84 0 .56-.33.84-.98.84h-2.86v7.02c0 .27-.09.49-.26.65a.97.97 0 0 1-.7.25Zm11.32-.14c-1.28 0-2.3-.11-3.06-.34a2.8 2.8 0 0 1-1.63-1.15 4.21 4.21 0 0 1-.5-2.19v-2.1c0-.92.17-1.65.5-2.18.33-.54.88-.92 1.63-1.15.76-.23 1.78-.35 3.06-.35h2.82c.53 0 .96.09 1.3.27.35.17.6.44.77.81.17.36.25.82.25 1.38 0 .36-.07.64-.22.83-.14.2-.35.29-.62.29a.75.75 0 0 1-.62-.27 1.22 1.22 0 0 1-.22-.77c0-.33-.05-.56-.16-.68-.1-.12-.31-.18-.62-.18h-2.68c-1 0-1.76.05-2.26.15-.5.1-.83.29-1 .58-.16.3-.24.74-.24 1.33v1.98c0 .59.08 1.03.24 1.33.17.3.5.49 1 .59.5.1 1.25.14 2.26.14h2.68c.31 0 .52-.06.62-.17.1-.11.16-.34.16-.67 0-.31.07-.57.2-.76a.7.7 0 0 1 .62-.3c.26 0 .47.1.62.29.16.19.24.47.24.85 0 .55-.08 1.01-.25 1.38-.17.36-.42.63-.77.8-.34.17-.77.26-1.3.26h-2.82Zm12.48 0c-1.28 0-2.3-.11-3.06-.34a2.8 2.8 0 0 1-1.63-1.15 4.21 4.21 0 0 1-.49-2.19v-2.1c0-.92.16-1.65.49-2.18.33-.54.88-.92 1.63-1.15.76-.23 1.78-.35 3.06-.35h.58c1.28 0 2.3.12 3.05.35.75.23 1.3.62 1.62 1.16.33.53.49 1.26.49 2.17v2.1c0 .91-.16 1.64-.49 2.18-.33.53-.87.92-1.62 1.15-.75.23-1.77.35-3.05.35h-.58Zm0-1.68h.58c1 0 1.75-.05 2.24-.14.5-.1.83-.3.99-.59.17-.3.25-.74.25-1.33V25.4c0-.6-.08-1.04-.25-1.33-.16-.3-.49-.49-.99-.58-.5-.1-1.24-.15-2.24-.15h-.58c-1 0-1.76.05-2.26.15-.5.1-.83.29-1 .58-.16.3-.24.74-.24 1.33v1.98c0 .59.08 1.03.24 1.33.17.3.5.49 1 .59.5.1 1.25.14 2.26.14Zm9.05 5.32c-.55 0-.83-.34-.83-1.02V22.48c0-.64.3-.96.86-.96.3 0 .51.1.63.28.11.19.17.5.17.96v.6l-.3-.4c.42-.46.95-.79 1.6-.99.64-.2 1.39-.31 2.23-.31h.58c1.28 0 2.3.12 3.05.35.75.23 1.29.62 1.62 1.16.32.53.48 1.26.48 2.17v2.1c0 .91-.16 1.64-.48 2.18-.33.53-.87.92-1.61 1.15-.75.23-1.75.35-3 .35h-4.14v2.62c0 .68-.3 1.02-.86 1.02Zm.86-5.32h4.14c.98 0 1.72-.05 2.2-.14.5-.1.81-.3.97-.59.16-.3.24-.74.24-1.33V25.4c0-.6-.08-1.04-.25-1.33-.16-.3-.48-.49-.98-.58-.5-.1-1.24-.15-2.24-.15h-.58c-1.21 0-2.1.25-2.67.74-.55.49-.83 1.25-.83 2.28v3.08Zm12.71-3.14a.67.67 0 0 1-.49-.21.67.67 0 0 1-.2-.49c0-.2.06-.36.2-.49.14-.14.3-.21.5-.21h5.51c.2 0 .36.07.5.21.13.13.2.3.2.49s-.07.35-.2.49a.65.65 0 0 1-.5.21h-5.52Zm14.38 4.82c-1.29 0-2.31-.12-3.06-.36a2.8 2.8 0 0 1-1.63-1.19 4.41 4.41 0 0 1-.5-2.25v-5.36c0-.93.16-1.68.48-2.23.31-.55.82-.95 1.53-1.2.7-.25 1.64-.37 2.82-.37h3.18c.52 0 .96.1 1.3.28.34.18.6.44.77.79.16.35.25.76.25 1.25 0 .84-.28 1.26-.84 1.26-.3 0-.51-.1-.63-.28-.12-.2-.2-.45-.21-.78a1.55 1.55 0 0 0-.14-.65c-.07-.13-.28-.19-.64-.19h-3.04c-.88 0-1.55.05-2 .16-.45.1-.75.32-.91.63-.16.3-.23.76-.23 1.37v5.28c0 .61.08 1.08.25 1.39.16.3.5.51 1 .62.5.1 1.25.15 2.25.15h2.68c.36 0 .57-.06.64-.19.07-.13.12-.34.14-.65.03-.38.11-.65.24-.81.13-.17.33-.25.6-.25.29 0 .5.11.64.32.13.2.2.52.2.96 0 .49-.09.9-.25 1.25-.17.34-.43.6-.77.78-.34.18-.78.27-1.3.27h-2.82Zm12.41 0c-1.28 0-2.3-.11-3.06-.34a2.8 2.8 0 0 1-1.63-1.15 4.21 4.21 0 0 1-.49-2.19v-2.1c0-.92.17-1.65.5-2.18.33-.54.87-.92 1.62-1.15.76-.23 1.78-.35 3.06-.35h.58c1.28 0 2.3.12 3.05.35.76.23 1.3.62 1.62 1.16.33.53.5 1.26.5 2.17v2.1c0 .91-.17 1.64-.5 2.18-.32.53-.86.92-1.62 1.15-.75.23-1.77.35-3.05.35h-.58Zm0-1.68h.58c1 0 1.75-.05 2.24-.14.5-.1.83-.3 1-.59.16-.3.24-.74.24-1.33V25.4c0-.6-.08-1.04-.25-1.33-.16-.3-.49-.49-.99-.58-.49-.1-1.24-.15-2.24-.15h-.58c-1 0-1.76.05-2.26.15-.5.1-.83.29-1 .58-.16.3-.24.74-.24 1.33v1.98c0 .59.08 1.03.24 1.33.17.3.5.49 1 .59.5.1 1.26.14 2.26.14Zm8.25 1.68v-9.46h6.74c1.12 0 2 .24 2.63.73.63.48.95 1.15.95 2.01 0 .43-.08.81-.23 1.13-.15.32-.38.58-.68.78.6.5.9 1.18.9 2.05 0 .57-.13 1.07-.42 1.48-.29.41-.7.73-1.23.95-.53.22-1.17.33-1.92.33h-6.74Zm1.68-1.68h4.92c1.36 0 2.04-.32 2.04-.96 0-.51-.15-.87-.45-1.08-.3-.21-.8-.32-1.51-.32h-5v2.36Zm0-4.04h5c.81 0 1.35-.07 1.6-.21.25-.15.38-.44.38-.89 0-.64-.69-.96-2.06-.96h-4.92v2.06Zm11.35-7.24h7.8c.68 0 1.02.28 1.02.84 0 .56-.34.84-1.02.84h-6.12v1.52h2.94a4.76 4.76 0 0 1 4.86 4.96c0 .95-.21 1.8-.63 2.54a4.7 4.7 0 0 1-4.23 2.4h-3.82c-.53 0-.8-.33-.8-.98V18.16Zm4.62 4.88h-2.94v6.54h2.94c.64 0 1.2-.13 1.67-.4.48-.27.85-.65 1.11-1.14.27-.5.4-1.07.4-1.72 0-.66-.13-1.23-.4-1.72a2.8 2.8 0 0 0-1.11-1.15 3.28 3.28 0 0 0-1.67-.41Zm9.31 12.18c-.52 0-.96-.09-1.3-.27-.34-.17-.6-.44-.76-.81a3.33 3.33 0 0 1-.25-1.38c0-.36.06-.64.2-.83.15-.2.36-.29.63-.29.28 0 .5.08.64.25.13.17.2.41.2.73 0 .37.06.62.16.74s.31.18.63.18h6.18c.26 0 .43-.04.5-.11.06-.07.1-.26.1-.57v-2.62c-.84.59-2 .88-3.5.88h-.58c-1.28 0-2.3-.12-3.06-.35a2.75 2.75 0 0 1-1.62-1.15 4.19 4.19 0 0 1-.48-2.18v-4.96c0-.64.28-.96.83-.96.56 0 .84.32.84.96v4.9c0 .59.09 1.03.25 1.33.16.3.5.49.99.59.5.1 1.25.14 2.25.14h.57c1.18 0 2.06-.25 2.63-.76.59-.51.88-1.29.88-2.32v-3.88c0-.64.28-.96.84-.96.56 0 .84.32.84.96v10.06c0 .97-.16 1.66-.48 2.07-.33.4-.88.61-1.66.61h-6.47Zm11.64-3.88a.98.98 0 0 1-.66-.23.71.71 0 0 1-.26-.57c0-.12.02-.23.07-.33.04-.1.11-.2.2-.29l3.34-3.52-3.34-3.54a.94.94 0 0 1-.27-.64.7.7 0 0 1 .25-.56.97.97 0 0 1 .65-.22c.28 0 .5.1.67.28l3.29 3.6 3.28-3.6c.18-.19.4-.28.66-.28.25 0 .46.07.63.22a.7.7 0 0 1 .25.56c0 .23-.1.44-.27.64l-3.34 3.54 3.33 3.52c.08.09.15.18.2.29a.73.73 0 0 1-.18.9.93.93 0 0 1-.64.23.83.83 0 0 1-.65-.28l-3.27-3.6-3.3 3.6a.84.84 0 0 1-.64.28Z"/>
</svg>
