<svg xmlns="http://www.w3.org/2000/svg" width="190" height="48" fill="none">
  <path fill="#A2322C" fill-rule="evenodd" d="M18.34 36.77c1.18 0 2.14.98 2.14 2.18v6.87c0 1.2-.96 2.18-2.14 2.18a2.16 2.16 0 0 1-2.14-2.18v-6.87c0-1.2.96-2.18 2.14-2.18Z" clip-rule="evenodd"/>
  <path fill="#932E27" fill-rule="evenodd" d="M22.62 35.7c1.18 0 2.14.97 2.14 2.17v5.97c0 1.2-.96 2.18-2.14 2.18a2.16 2.16 0 0 1-2.14-2.18v-5.97c0-1.2.96-2.17 2.14-2.17ZM14.06 35.7c1.18 0 2.14.97 2.14 2.17v5.97c0 1.2-.96 2.18-2.14 2.18a2.16 2.16 0 0 1-2.14-2.18v-5.97c0-1.2.96-2.17 2.14-2.17Z" clip-rule="evenodd"/>
  <path fill="#9E342C" fill-rule="evenodd" d="M5.83 16.41c.13 7.74.27 12.34 3.3 19.56-4.42-3.08-10.93-17.14-3.3-19.56ZM30.54 16.41c-.13 7.74-.27 12.34-3.3 19.56 4.41-3.08 10.92-17.14 3.3-19.56Z" clip-rule="evenodd"/>
  <path fill="#DB6D44" fill-rule="evenodd" d="M18.22 9.71c5.8 0 11.34-4.12 11.34-4.12-.24 3.88-.19 6.46 1.3 13.2-3.87.04-8.67.11-12.64-.34-3.96.45-8.76.38-12.63.35 1.48-6.75 1.54-9.33 1.3-13.21 0 0 5.53 4.12 11.33 4.12Z" clip-rule="evenodd"/>
  <path fill="#E7764E" fill-rule="evenodd" d="M30.85 17.94c0 7.03 1.53 21.4-12.07 21.4-15.04 0-13.51-14.37-13.51-21.4 0-7.03 5.55-11.11 12.62-11.11 7.06 0 12.96 4.08 12.96 11.11Z" clip-rule="evenodd"/>
  <path fill="#332D2B" fill-rule="evenodd" d="M18 0 .02 1.99 0 2.35 18 4.4 36 2.35l.01-.36L18 0Z" clip-rule="evenodd"/>
  <path fill="#050000" fill-rule="evenodd" d="M18 .36 0 2.35l18 2.42 17.99-2.42-18-1.99Z" clip-rule="evenodd"/>
  <path fill="#332D2B" fill-rule="evenodd" d="M10.06 2.7C15.3 2 20.5 2 25.68 2.78l.97 6.72H9.2l.87-6.8Z" clip-rule="evenodd"/>
  <path fill="#050000" fill-rule="evenodd" d="M27.36 1.03c.66-.25 2.94-.42 3.36.16.37.51.7 15.34.7 15.34l-.4.03s-.64-15.2-.68-15.2l-2.98-.33Z" clip-rule="evenodd"/>
  <path fill="#050000" fill-rule="evenodd" d="M30.75 14.6c-.15.32.1.52.12.64.01.11 0 .77-.13 2.2-.13 1.42.04 2.6.04 2.6s.16-.4.16-.37c0 .03.1.4.11.36l.14-.34.23.62.05-.6s.15.46.17.38l.13-.3s.17.32.18.25l.08-.42s.2.47.2.42l.08-.5s-.07-1.7-.34-2.82l-.37-1.5s.15-.18.11-.47c-.07-.54-.86-.37-.96-.14Z" clip-rule="evenodd"/>
  <path fill="#80251E" fill-rule="evenodd" d="M23.72 10.55a6.7 6.7 0 0 0-5.65 3.2 6.7 6.7 0 0 0-5.65-3.2c-3.77 0-6.81 3.24-6.81 7.24s3.04 7.24 6.8 7.24c2.36 0 4.43-.55 5.66-2.48 1.22 1.93 3.3 2.48 5.65 2.48 3.76 0 6.8-3.24 6.8-7.24s-3.04-7.24-6.8-7.24Z" clip-rule="evenodd"/>
  <path fill="#80251E" fill-rule="evenodd" d="M18.07 12.24c-1.68-2.29-7.36-2.25-6.6-4.37-3.69 3.24-1.02 4.85 1.8 5.08 1.68.14 3.89 1.44 4.8 2.01.9-.57 3.12-1.87 4.79-2 2.82-.24 5.49-1.85 1.8-5.1.76 2.13-4.92 2.09-6.6 4.38Z" clip-rule="evenodd"/>
  <path fill="#6B1D19" fill-rule="evenodd" d="M28.32 18.9a4.39 4.39 0 0 1-4.35 4.43 4.39 4.39 0 0 1-4.35-4.42 4.39 4.39 0 0 1 4.35-4.42c2.4 0 4.35 1.97 4.35 4.42ZM16.52 18.9a4.39 4.39 0 0 1-4.34 4.43 4.39 4.39 0 0 1-4.35-4.42 4.39 4.39 0 0 1 4.35-4.42c2.4 0 4.34 1.97 4.34 4.42Z" clip-rule="evenodd"/>
  <path fill="#F7F7F7" d="M28.39 18.16a4.4 4.4 0 0 0-3.85-4.87 4.37 4.37 0 0 0-4.8 3.91 4.4 4.4 0 0 0 3.85 4.88 4.37 4.37 0 0 0 4.8-3.91Z"/>
  <path fill="#231916" fill-rule="evenodd" d="M26.2 17.69c0 1.2-.95 2.18-2.14 2.18a2.17 2.17 0 0 1-2.15-2.18c0-1.2.97-2.18 2.15-2.18 1.19 0 2.15.97 2.15 2.18Z" clip-rule="evenodd"/>
  <path fill="#fff" fill-rule="evenodd" d="M25.76 17.1c0 .52-.41.94-.91.94a.92.92 0 0 1-.92-.93c0-.52.41-.93.92-.93.5 0 .91.41.91.93Z" clip-rule="evenodd"/>
  <path fill="#F7F7F7" d="M16.59 18.13a4.4 4.4 0 0 0-3.9-4.85 4.37 4.37 0 0 0-4.75 3.96 4.4 4.4 0 0 0 3.89 4.84 4.37 4.37 0 0 0 4.76-3.95Z"/>
  <path fill="#231916" fill-rule="evenodd" d="M14.41 17.69c0 1.2-.96 2.18-2.15 2.18a2.17 2.17 0 0 1-2.14-2.18c0-1.2.96-2.18 2.14-2.18 1.2 0 2.15.97 2.15 2.18Z" clip-rule="evenodd"/>
  <path fill="#fff" fill-rule="evenodd" d="M13.96 17.1c0 .52-.4.94-.91.94a.92.92 0 0 1-.92-.93c0-.52.41-.93.92-.93.5 0 .91.41.91.93Z" clip-rule="evenodd"/>
  <path fill="#F29600" fill-rule="evenodd" d="M18.07 20.3c-.55 0-1.1.13-1.67.42a6.78 6.78 0 0 0 1.67 4.07c.99-1.2 1.6-2.58 1.66-4.07a3.55 3.55 0 0 0-1.66-.43Z" clip-rule="evenodd"/>
  <path fill="#B75C3C" fill-rule="evenodd" d="M12.75 28.33c-1 0-1.83-.73-1.89-1.65a3.6 3.6 0 0 0 3.78-.03c-.05.94-.88 1.68-1.9 1.68ZM18.1 28.47c-1.01 0-1.84-.74-1.9-1.66a3.6 3.6 0 0 0 3.78-.02c-.04.93-.87 1.68-1.89 1.68ZM23.44 28.51c-1.01 0-1.83-.73-1.9-1.65a3.6 3.6 0 0 0 3.79-.03c-.05.94-.88 1.68-1.9 1.68ZM10.07 31.6c-1.01 0-1.83-.72-1.9-1.65a3.6 3.6 0 0 0 3.79-.02c-.05.93-.88 1.68-1.9 1.68ZM15.42 31.6c-1.01 0-1.83-.72-1.9-1.65a3.6 3.6 0 0 0 3.79-.02c-.05.93-.88 1.68-1.9 1.68ZM20.77 31.6c-1 0-1.83-.72-1.9-1.65a3.6 3.6 0 0 0 3.79-.02c-.05.93-.88 1.68-1.9 1.68ZM26.12 31.6c-1 0-1.83-.72-1.89-1.65a3.6 3.6 0 0 0 3.78-.02c-.05.93-.87 1.68-1.89 1.68ZM12.75 34.37c-1 0-1.83-.73-1.89-1.65a3.6 3.6 0 0 0 3.78-.03c-.05.94-.88 1.68-1.9 1.68ZM18.1 34.5c-1.01 0-1.84-.72-1.9-1.65a3.6 3.6 0 0 0 3.78-.02c-.04.93-.87 1.68-1.89 1.68ZM23.44 34.55c-1.01 0-1.83-.73-1.9-1.65a3.6 3.6 0 0 0 3.79-.03c-.05.94-.88 1.68-1.9 1.68ZM20.42 37.01c-1 0-1.83-.73-1.89-1.65a3.6 3.6 0 0 0 3.78-.03c-.05.94-.87 1.68-1.89 1.68ZM15.76 37.01c-1 0-1.82-.73-1.88-1.65a3.6 3.6 0 0 0 3.78-.03c-.05.94-.88 1.68-1.9 1.68Z" clip-rule="evenodd"/>
  <path fill="#80251E" fill-rule="evenodd" d="M14.61 44.05c-1.16 0-2.16-1.02-2.7-2.54v2.33c0 1.2.97 2.18 2.15 2.18s2.14-.98 2.14-2.18v-.5c-.46.46-1 .71-1.59.71ZM22.06 44.05c1.16 0 2.17-1.02 2.7-2.54v2.33c0 1.2-.96 2.18-2.14 2.18a2.16 2.16 0 0 1-2.14-2.18v-.5c.46.46 1 .71 1.58.71Z" clip-rule="evenodd"/>
  <path fill="#F29600" fill-rule="evenodd" d="M11.2 37.26c.35 0 .65.3.65.67v2.19c0 .36-.3.66-.66.66a.66.66 0 0 1-.65-.66v-2.2c0-.36.3-.66.65-.66Z" clip-rule="evenodd"/>
  <path fill="#F29600" fill-rule="evenodd" d="M12.47 37.26c.36 0 .65.3.65.67v2.19c0 .36-.3.66-.65.66a.66.66 0 0 1-.66-.66v-2.2c0-.36.3-.66.66-.66Z" clip-rule="evenodd"/>
  <path fill="#F29600" fill-rule="evenodd" d="M13.76 37.26c.36 0 .66.3.66.67v2.19c0 .36-.3.66-.66.66a.66.66 0 0 1-.65-.66v-2.2c0-.36.3-.66.65-.66ZM22.37 37.26c.36 0 .65.3.65.67v2.19c0 .36-.3.66-.65.66a.66.66 0 0 1-.66-.66v-2.2c0-.36.3-.66.66-.66Z" clip-rule="evenodd"/>
  <path fill="#F29600" fill-rule="evenodd" d="M23.64 37.26c.36 0 .66.3.66.67v2.19c0 .36-.3.66-.66.66a.66.66 0 0 1-.65-.66v-2.2c0-.36.3-.66.65-.66Z" clip-rule="evenodd"/>
  <path fill="#F29600" fill-rule="evenodd" d="M24.94 37.26c.36 0 .65.3.65.67v2.19c0 .36-.29.66-.65.66a.66.66 0 0 1-.65-.66v-2.2c0-.36.3-.66.65-.66Z" clip-rule="evenodd"/>
  <path fill="#80251E" fill-rule="evenodd" d="M18.34 48c1.18 0 2.14-.98 2.14-2.18v-.7c-.56.9-1.33 1.46-2.19 1.46-.8 0-1.54-.5-2.1-1.32v.56c0 1.2.97 2.18 2.15 2.18Z" clip-rule="evenodd"/>
  <path fill="#1A1A1A" fill-rule="evenodd" d="M26.84 13.9h-5.37A2.1 2.1 0 0 0 19.4 16v.3a2.84 2.84 0 0 0-2.72-.03V16a2.1 2.1 0 0 0-2.08-2.1H9.23A2.1 2.1 0 0 0 7.16 16v3.24a2.1 2.1 0 0 0 2.07 2.1h5.37a2.1 2.1 0 0 0 2.08-2.1V17.1a2.86 2.86 0 0 1 2.72.04v2.1a2.1 2.1 0 0 0 2.07 2.1h5.37a2.1 2.1 0 0 0 2.08-2.1V16a2.1 2.1 0 0 0-2.08-2.1Zm-10.7 5.34c0 .86-.69 1.56-1.54 1.56H9.23c-.85 0-1.54-.7-1.54-1.56V16c0-.86.7-1.57 1.54-1.57h5.37c.85 0 1.54.7 1.54 1.57v3.24Zm12.24 0c0 .86-.69 1.56-1.54 1.56h-5.37c-.85 0-1.54-.7-1.54-1.56V16c0-.86.7-1.57 1.54-1.57h5.37c.85 0 1.54.7 1.54 1.57v3.24Z" clip-rule="evenodd"/>
  <path fill="#4D4D4D" fill-rule="evenodd" d="M26.84 14.14h-5.37a2.1 2.1 0 0 0-2.07 2.11v.3a2.85 2.85 0 0 0-2.72-.03v-.27a2.1 2.1 0 0 0-2.08-2.1H9.23a2.1 2.1 0 0 0-2.07 2.1v3.24a2.1 2.1 0 0 0 2.07 2.1h5.37a2.1 2.1 0 0 0 2.08-2.1v-2.14a2.86 2.86 0 0 1 2.72.04v2.1a2.1 2.1 0 0 0 2.07 2.1h5.37a2.1 2.1 0 0 0 2.08-2.1v-3.24a2.1 2.1 0 0 0-2.08-2.1ZM7.7 16.25c0-.86.7-1.57 1.54-1.57h5.37c.85 0 1.54.7 1.54 1.57v3.24c0 .86-.69 1.56-1.54 1.56H9.23c-.85 0-1.54-.7-1.54-1.56v-3.24Zm12.24 0c0-.86.7-1.57 1.54-1.57h5.37c.85 0 1.54.7 1.54 1.57v3.24c0 .86-.69 1.56-1.54 1.56h-5.37c-.85 0-1.54-.7-1.54-1.56v-3.24Z" clip-rule="evenodd"/>
  <path fill="#F2F2F2" fill-rule="evenodd" d="M16.14 16.25v2.99c0 .86-.69 1.56-1.54 1.56H9.23c-.85 0-1.54-.7-1.54-1.56v-2.99c0-.86.7-1.57 1.54-1.57h5.37c.85 0 1.54.7 1.54 1.57ZM28.38 16.25v2.99c0 .86-.69 1.56-1.54 1.56h-5.37c-.85 0-1.54-.7-1.54-1.56v-2.99c0-.86.7-1.57 1.54-1.57h5.37c.85 0 1.54.7 1.54 1.57Z" clip-rule="evenodd" opacity=".55"/>
  <mask id="a" width="10" height="7" x="7" y="14" maskUnits="userSpaceOnUse" style="mask-type:luminance">
    <path fill="#fff" d="M16.14 16.25v2.99c0 .86-.69 1.56-1.54 1.56H9.23c-.85 0-1.54-.7-1.54-1.56v-2.99c0-.86.7-1.57 1.54-1.57h5.37c.85 0 1.54.7 1.54 1.57Z"/>
  </mask>
  <g mask="url(#a)">
    <path fill="#F2F2F2" fill-rule="evenodd" d="m11.01 21.25-1.61-.01 2.51-7.2 1.62.03L11 21.25Z" clip-rule="evenodd"/>
  </g>
  <mask id="b" width="9" height="7" x="20" y="14" maskUnits="userSpaceOnUse" style="mask-type:luminance">
    <path fill="#fff" d="M28.47 16.25v2.99c0 .86-.7 1.56-1.55 1.56h-5.37c-.84 0-1.54-.7-1.54-1.56v-2.99c0-.86.7-1.57 1.54-1.57h5.37c.85 0 1.55.7 1.55 1.57Z"/>
  </mask>
  <g mask="url(#b)">
    <path fill="#F2F2F2" fill-rule="evenodd" d="m23.33 21.25-1.61-.01 2.51-7.2 1.62.03-2.52 7.18Z" clip-rule="evenodd"/>
  </g>
  <path fill="#000" d="M56.38 31.64a5.5 5.5 0 0 1-1.64-.34 3.2 3.2 0 0 1-1.44-.76c-.12-.13-.23-.53-.32-1.2-.07-.45-.15-.86-.24-1.22-.08-.37-.17-.7-.26-1-.25.03-.57.1-.94.2-.36.1-.79.21-1.28.36-.97.3-1.6.54-1.9.74a56.81 56.81 0 0 1-.8 2.12c-.04.19-.09.36-.14.52a.65.65 0 0 1-.34.42.4.4 0 0 1-.18.04c-.33 0-.87-.17-1.62-.5-.76-.35-1.15-.57-1.16-.66-.05-.16.07-.62.38-1.38a66.63 66.63 0 0 0 .74-1.96c-.28-.28-.42-.56-.42-.84 0-.1 0-.17.02-.22.01-.15.42-.43 1.22-.86l2.58-8.82c.04-.13.05-.43.02-.88-.01-.36.03-.59.12-.68.07-.07.23-.1.48-.1.63 0 1.52.16 2.68.48 1.17.32 1.87.6 2.08.86.08 1.48.38 3.7.9 6.66.65 3.67 1.33 6.19 2.04 7.56l-.08.86c-.03.25-.08.43-.16.54a.7.7 0 0 1-.34.06Zm-6.82-6.98a44.31 44.31 0 0 1 2.18-.56 61.72 61.72 0 0 1-.32-1.66c-.15-.9-.25-1.83-.3-2.78a31.1 31.1 0 0 0-.94 2.72 61.9 61.9 0 0 0-.44 1.5c-.1.37-.17.63-.18.78Zm12.58 10.3c-.36 0-.8-.1-1.34-.3-.53-.19-.9-.38-1.12-.58-.2-.19-.3-.39-.3-.6 0-.08.04-.17.12-.28a62.34 62.34 0 0 1 .64-.74c.12-.15.2-.3.24-.46l.8-2.08-3.16-7.62a2.43 2.43 0 0 0-.36-.4 1.5 1.5 0 0 1-.34-.8c-.02-.16.32-.44 1.04-.84a3.9 3.9 0 0 1 1.72-.62c.11 0 .2.02.26.06.23.12.39.35.48.68a5.24 5.24 0 0 0 .22.86l1.68 4.52 2.02-5.22.26-.8c.1-.27.24-.43.42-.5.12-.04.27-.06.44-.06.46 0 .94.1 1.46.32.52.2.82.4.88.6.03.13.04.23.04.3 0 .23-.1.46-.3.7-.24.28-.38.5-.44.64l-4.32 11.68a26.15 26.15 0 0 1-.52 1.2c-.05.1-.1.18-.16.22a.25.25 0 0 1-.14.1.8.8 0 0 1-.22.02Zm9.4-3.42c-.37 0-.9-.09-1.58-.26-.68-.16-1.06-.3-1.16-.4a.53.53 0 0 1-.06-.58 4.51 4.51 0 0 1 .4-.62v-9.3c0-.1-.05-.25-.16-.42-.1-.17-.14-.32-.1-.44.08-.28.29-.46.62-.54.22-.05.72.02 1.5.22.86.21 1.32.43 1.4.66.06.15.04.37-.06.66a6.8 6.8 0 0 0-.22.8c0 .16.03.32.08.48.2-.67.48-1.26.84-1.78.44-.63.88-.94 1.32-.94.44 0 1.02.17 1.74.5.67.32 1.09.6 1.26.82.14.17.27.65.4 1.44l.94-1.74c.46-.68.89-1.02 1.3-1.02.46 0 1.04.16 1.76.48.74.3 1.15.59 1.24.84.38.84.56 4 .56 9.46.1.28.16.53.16.76 0 .4-.15.67-.46.82-.1.04-.27.06-.5.06a7.68 7.68 0 0 1-2.76-.62.46.46 0 0 1-.1-.26c0-.15.1-.38.3-.7.2-.33.3-.57.3-.72.02-5.25-.02-7.9-.12-7.94-.21-.05-.64.47-1.3 1.58a6.58 6.58 0 0 0-1.08 3.2v3.92c.1.28.14.52.14.72 0 .32-.17.57-.52.76-.1.04-.27.06-.5.06a7.68 7.68 0 0 1-2.76-.62.27.27 0 0 1-.08-.2c0-.13.1-.37.28-.72.2-.33.3-.59.3-.76.02-5.25-.02-7.9-.12-7.94-.18-.05-.64.55-1.38 1.8-.77 1.33-1.16 2.34-1.16 3.02v3.74c.18.17.26.39.26.64 0 .52-.22.87-.68 1.04a.75.75 0 0 1-.24.04Zm17.92-.12c-.74 0-1.66-.36-2.76-1.08-.94-.64-1.42-2.11-1.42-4.42 0-1.7.26-3.25.78-4.64.58-1.5 1.28-2.27 2.1-2.34.64-.04 1.44.13 2.4.52.92.37 1.56.8 1.92 1.28.28.39.42.9.42 1.54 0 .08 0 .2-.02.34 0 .13 0 .27-.02.42l-.02.4v.28a6.45 6.45 0 0 1 .04.5c0 .43-.2.63-.62.62a5.29 5.29 0 0 1-1.36-.22c-.57-.2-.92-.47-1.04-.82-.04-.12.02-.28.16-.48.16-.19.23-.35.2-.5.02-.05.02-.13.02-.24.02-.12.02-.27.02-.46 0-.8-.14-1.21-.42-1.24-.42-.03-.78.62-1.08 1.94-.26 1.21-.4 2.5-.4 3.84 0 1.63.2 2.5.58 2.6.31.07.71-.27 1.2-1 .42-.61.64-1.03.66-1.26a25.12 25.12 0 0 1 .1-.68c.1-.37.34-.55.72-.52.23.01.65.17 1.26.46.6.28.92.5.94.64.04.15.06.26.06.34 0 .27-.22.6-.66 1.02-.37.81-.69 1.38-.96 1.7a3.47 3.47 0 0 1-2.8 1.46Zm10.78.36-.7-.16-.98-.18a8.79 8.79 0 0 1-1.48-.3c-.76-.2-1.37-.85-1.82-1.94-.41-1-.62-2.19-.62-3.56 0-1.36.21-2.6.64-3.74a4.95 4.95 0 0 1 2.02-2.58c.13-.08.33-.12.6-.12a11.72 11.72 0 0 1 1.58.26c.47 0 1.13.07 1.98.22.73.33 1.3 1.03 1.7 2.1.36.96.54 2.1.54 3.4 0 1.81-.3 3.37-.92 4.68-.68 1.41-1.53 2.05-2.54 1.92Zm-1.26-2c.41.1.8-.37 1.14-1.44.32-1.01.48-2.13.48-3.36 0-.7-.09-1.38-.26-2.02-.24-.99-.61-1.48-1.12-1.48-.37 0-.7.44-1 1.32a7.6 7.6 0 0 0-.46 2.5c0 .48.03.96.08 1.44.07.47.15.93.26 1.4.25 1.01.55 1.56.88 1.64Zm9.3 5.96a6.15 6.15 0 0 1-2.05-.48c-.2-.05-.39-.11-.58-.18-.33-.1-.52-.3-.58-.62-.02-.16.02-.42.14-.78.14-.36.2-.58.2-.66V20c0-.43-.03-.7-.1-.84-.2-.33-.26-.57-.18-.7.07-.1.24-.16.52-.16.3 0 .76.06 1.38.18l1.14.22c.23.03.4.19.52.48.02.03.02.12.02.28 0 .55-.08 1.36-.24 2.44l.96-1.9c.42-.81.81-1.19 1.18-1.12 2.62.53 3.92 2.16 3.92 4.88 0 1.52-.41 3.07-1.24 4.64-.82 1.55-1.72 2.55-2.68 3-.16.07-.28.1-.38.1-.34 0-.92-.4-1.74-1.22v3.86c.03.13.09.32.18.56.11.3.16.5.16.62 0 .28-.18.42-.56.42Zm.27-6.42a4.64 4.64 0 0 0 2.02-2.2 6.7 6.7 0 0 0 .92-3.16c0-1.13-.44-1.75-1.32-1.86-.48-.05-1.02 2.35-1.62 7.22Zm15.24-4.42c-.18.07-.4.1-.66.08-.09 0-.29-.04-.6-.12-.29-.08-.54-.12-.74-.12h-3.06c-.14 0-.32.07-.52.22-.2.13-.37.2-.52.18-.26-.03-.48-.17-.64-.44l-.46-.82-.46-.58c-.14-.21-.22-.38-.22-.5a.94.94 0 0 1 .22-.66c.16-.2.34-.32.54-.36l1.28.02a60.4 60.4 0 0 1 4.04-.2c.75 0 1.18.05 1.3.14.24.19.46.57.64 1.16.16.53.24 1 .24 1.38 0 .3-.12.51-.38.62Zm7.73 6.82c-.1 0-.18 0-.22-.02a27.21 27.21 0 0 1-1.98-.7 5.67 5.67 0 0 1-3-3.06 11.35 11.35 0 0 1-.92-4.74c0-2.2.42-4.14 1.26-5.82.9-1.8 2.03-2.73 3.36-2.78.53-.03 1.3.24 2.28.8a5.06 5.06 0 0 1 2 1.68c.32.53.54 1.74.66 3.62.03.43-.03.83-.16 1.22-.16.5-.37.72-.62.68-.23-.03-.5-.08-.8-.16-.3-.08-.62-.17-.96-.28-.85-.28-1.31-.51-1.38-.7a.66.66 0 0 1-.04-.18.9.9 0 0 1 .16-.44.92.92 0 0 0 .18-.46 15.78 15.78 0 0 0 .1-1.54c0-.7-.08-1.17-.24-1.44a5.51 5.51 0 0 0-1.82 2.94c-.35 1.19-.52 2.5-.52 3.94 0 1.13.1 2.15.3 3.04.2.9.44 1.43.72 1.6.13.08.5-.19 1.1-.8.6-.6 1-1.1 1.18-1.5.03-.03.09-.24.18-.64.08-.24.19-.39.32-.44.21-.08.8.11 1.74.58.93.47 1.4.79 1.38.96-.04.33-.17.6-.38.8a9.36 9.36 0 0 1-1.78 2.5c-.86.9-1.56 1.34-2.1 1.34Zm10.48.06-.7-.16-.98-.18a8.78 8.78 0 0 1-1.48-.3c-.76-.2-1.37-.85-1.82-1.94a9.3 9.3 0 0 1-.62-3.56c0-1.36.21-2.6.64-3.74a4.95 4.95 0 0 1 2.02-2.58c.13-.08.33-.12.6-.12a11.7 11.7 0 0 1 1.58.26c.46 0 1.12.07 1.98.22.73.33 1.3 1.03 1.7 2.1.36.96.54 2.1.54 3.4 0 1.81-.31 3.37-.92 4.68-.68 1.41-1.53 2.05-2.54 1.92Zm-1.26-2c.41.1.79-.37 1.14-1.44.32-1.01.48-2.13.48-3.36 0-.7-.09-1.38-.26-2.02-.24-.99-.62-1.48-1.12-1.48-.38 0-.71.44-1 1.32a7.6 7.6 0 0 0-.46 2.5c0 .48.02.96.08 1.44.06.47.15.93.26 1.4.25 1.01.54 1.56.88 1.64Zm10.47 2a15.4 15.4 0 0 1-.42-.08 9.33 9.33 0 0 1-3.2-1.06 3.14 3.14 0 0 0-.38-.18c-.1-.05-.15-.1-.16-.14 0-.03 0-.05-.02-.06v-.08a.7.7 0 0 1 .04-.22.6.6 0 0 0 .06-.22v-9.86c0-.16.21-.24.64-.24a8.5 8.5 0 0 1 .92.06 8.91 8.91 0 0 1 1.74-.5 12.56 12.56 0 0 1 1.78-.22c.15 0 .33.01.54.04.21.01.42.04.62.08.21.04.4.1.58.18.19.07.31.15.38.26.19.3.3.47.36.52l.48.4c.19.15.3.3.34.46.04.12.06.25.06.38 0 .77-.51 1.61-1.54 2.52 1.04.77 1.62 1.49 1.74 2.14v.24l.02.2c0 .79-.35 1.66-1.04 2.62-.57.76-1.25 1.43-2.04 2.02-.73.53-1.23.78-1.5.74Zm-1.18-2.38a4.05 4.05 0 0 0 2.06-1.62c.63-.88.9-1.63.84-2.24-.25.03-.68.15-1.28.36l-.96.4c-.3.13-.51.26-.66.38v2.72Zm0-5.48c.3-.25.63-.5.96-.74.33-.25.61-.51.84-.78.45-.5.65-.81.58-.96-.03-.04-.08-.06-.16-.06-.1 0-.25.02-.44.06a5.06 5.06 0 0 0-1.78.96v1.52Zm11.01 7.84c-.2-.03-.48-.11-.84-.26-.34-.15-.77-.35-1.28-.62-1.01-.53-1.56-.9-1.64-1.12a.62.62 0 0 1-.04-.18c0-.08.02-.18.06-.3a.92.92 0 0 0 .08-.3l.02-12.06c0-.16-.03-.36-.1-.6-.1-.32-.16-.54-.18-.66a1.45 1.45 0 0 1-.02-.28.65.65 0 0 1 .18-.36.55.55 0 0 1 .28-.16 2.26 2.26 0 0 1 .76-.16l.24-.02c.19.03.5.13.96.32.5.19.89.28 1.18.28a5.65 5.65 0 0 0 .98-.12c.22-.05.42-.11.62-.18.22-.07.4-.15.56-.24.6-.35.97-.5 1.1-.44.32.1.8.45 1.42 1.06.63.57.98 1 1.04 1.26.03.12-.1.33-.38.62-.25.3-.47.44-.66.44a.64.64 0 0 1-.32-.06c-.06-.04-.11-.05-.14-.04a.82.82 0 0 0-.46-.08 4.68 4.68 0 0 0-1.54.38c-.5.17-.91.3-1.26.4-.34.1-.63.25-.86.48l-.08 2.52 2.12-.44a8.7 8.7 0 0 1 1.9-.24c.44 0 .82.13 1.12.38a3.9 3.9 0 0 1 1.2 1.96c.1.36.18.65.22.86.02.1.02.2.02.3.02.1.02.2.02.3 0 1.1-.47 2.29-1.42 3.58a13.12 13.12 0 0 1-2.8 2.76c-1.01.73-1.7 1.07-2.06 1.02Zm-.24-3.26c.87-.24 1.72-.97 2.56-2.2.84-1.23 1.22-2.25 1.14-3.08-.37.03-.96.2-1.76.5-.86.35-1.51.7-1.94 1.06v3.72Zm11.91 6.46c-.36 0-.8-.1-1.34-.3-.53-.19-.9-.38-1.12-.58-.2-.19-.3-.39-.3-.6 0-.08.04-.17.12-.28a40.32 40.32 0 0 1 .64-.74c.12-.15.2-.3.24-.46l.8-2.08-3.16-7.62a2.51 2.51 0 0 0-.36-.4 1.49 1.49 0 0 1-.34-.8c-.03-.16.32-.44 1.04-.84a3.9 3.9 0 0 1 1.72-.62c.1 0 .2.02.26.06.23.12.39.35.48.68a4.97 4.97 0 0 0 .22.86l1.68 4.52 2.02-5.22.26-.8c.1-.27.23-.43.42-.5.12-.04.27-.06.44-.06.45 0 .94.1 1.46.32.52.2.81.4.88.6.03.13.04.23.04.3 0 .23-.1.46-.3.7-.24.28-.39.5-.44.64l-4.32 11.68a26.15 26.15 0 0 1-.52 1.2c-.05.1-.1.18-.16.22a.25.25 0 0 1-.14.1.81.81 0 0 1-.22.02Zm8.76-3.26c-.24.04-.75-.07-1.52-.34-.8-.28-1.27-.53-1.42-.76a.37.37 0 0 1-.08-.24c0-.17.13-.38.38-.62a7.56 7.56 0 0 0 .52-.56l2.72-4.14-2.46-3.84a2.2 2.2 0 0 1-.58-.62c-.02-.16.32-.46 1-.9a4.57 4.57 0 0 1 1.44-.72c.25-.04.42.02.5.18.1.16.17.33.24.5l1.74 3 1.92-2.88.2-.54c.06-.12.3-.2.7-.24.17-.01.64.13 1.4.44.75.3 1.14.54 1.18.7.05.3-.07.59-.36.84l-.74.6-2.54 3.4 2.8 4.1.44.46c.2.23.3.42.3.58 0 .12-.04.23-.12.32-.1.15-.5.38-1.16.7-.63.32-1.03.5-1.2.54-.38 0-.62-.17-.72-.52-.16-.59-.86-1.82-2.1-3.7l-1.76 2.88-.18.74c-.1.39-.29.6-.54.64Z"/>
</svg>
