<svg xmlns="http://www.w3.org/2000/svg">
    <symbol id="arrow-up" viewBox="0 0 24 24"><path d="M5.71 9.5a1 1 0 0 0 1.41 0L11 5.63V20.8a1 1 0 0 0 1 1 1 1 0 0 0 1-1V5.63l3.88 3.88a1 1 0 1 0 1.41-1.41L12.7 2.5a1 1 0 0 0-1.41 0L5.71 8.09a1 1 0 0 0 0 1.4Z"/></symbol>
    <symbol id="phone" viewBox="0 0 24 24"><path d="M6.62 10.79a15.15 15.15 0 0 0 6.59 6.59l2.2-2.2a1 1 0 0 1 1.02-.24c1.12.37 2.33.57 3.57.57a1 1 0 0 1 1 1V20a1 1 0 0 1-1 1A17 17 0 0 1 3 4a1 1 0 0 1 1-1h3.5a1 1 0 0 1 1 1c0 1.25.2 2.45.57 3.57a1 1 0 0 1-.25 1.02l-2.2 2.2Z"/></symbol>
    <symbol id="email" viewBox="0 0 24 24"><path d="M22 6a2 2 0 0 0-2-2H4a2 2 0 0 0-2 2v12c0 1.1.9 2 2 2h16a2 2 0 0 0 2-2V6Zm-2 0-8 5-8-5h16Zm0 12H4V8l8 5 8-5v10Z"/></symbol>
    <symbol id="telegram" viewBox="0 0 24 24"><path d="M20.71 3.65s1.94-.75 1.78 1.09c-.05.75-.54 3.4-.92 6.27l-1.3 8.5s-.1 1.24-1.07 1.46c-.97.21-2.43-.76-2.7-.97-.22-.17-4.05-2.6-5.4-3.8-.37-.32-.8-.97.06-1.72l5.66-5.41c.65-.65 1.3-2.17-1.4-.33l-7.55 5.14s-.87.54-2.49.05l-3.5-1.08s-1.3-.8.91-1.62c5.4-2.54 12.04-5.14 17.92-7.58Z"/></symbol>
    <symbol id="whatsapp" viewBox="0 0 24 24"><path d="M19.05 4.91a9.93 9.93 0 0 0-15.6 11.95L2.05 22l5.25-1.38A9.91 9.91 0 0 0 19.05 4.91Zm-7.01 15.24c-1.48 0-2.93-.4-4.2-1.15l-.3-.18-3.12.82.83-3.04-.2-.31a8.25 8.25 0 0 1 12.8-10.2 8.22 8.22 0 0 1-5.81 14.06Zm4.52-6.16c-.25-.12-1.47-.72-1.69-.81-.23-.08-.39-.12-.56.12-.17.25-.64.81-.78.97-.14.17-.29.19-.54.06-.25-.12-1.05-.39-1.99-1.23a7.57 7.57 0 0 1-1.38-1.72c-.14-.25-.02-.38.11-.51.11-.11.25-.29.37-.43s.17-.25.25-.41c.08-.17.04-.31-.02-.43l-.76-1.84c-.2-.48-.41-.42-.56-.43h-.48a.9.9 0 0 0-.66.31c-.22.25-.86.85-.86 2.07 0 1.22.89 2.4 1.01 2.56.12.17 1.75 2.67 4.23 3.74.59.26 1.05.41 1.41.52.59.19 1.13.16 1.56.1.48-.07 1.47-.6 1.67-1.18.21-.58.21-1.07.14-1.18-.07-.11-.22-.16-.47-.28Z"/></symbol>
</svg>
